<svg width="23" height="21" viewBox="0 0 23 21" fill="none" xmlns="http://www.w3.org/2000/svg">
<path fill-rule="evenodd" clip-rule="evenodd" d="M8.21442 2.38636C5.58029 2.38636 3.4449 4.41634 3.4449 6.92045C3.4449 9.42456 5.58029 11.4545 8.21442 11.4545C10.8485 11.4545 12.9839 9.42456 12.9839 6.92045C12.9839 4.41634 10.8485 2.38636 8.21442 2.38636ZM8.21442 13.8409C12.2349 13.8409 15.4942 10.7425 15.4942 6.92045C15.4942 3.09839 12.2349 0 8.21442 0C4.1939 0 0.934631 3.09839 0.934631 6.92045C0.934631 10.7425 4.1939 13.8409 8.21442 13.8409Z" fill="#8F8F8F"/>
<path fill-rule="evenodd" clip-rule="evenodd" d="M20.0127 21L11.4778 12.8864L13.9628 10.524L22.4977 18.6376L20.0127 21Z" fill="#8F8F8F"/>
</svg>
